<svg height="512" viewBox="0 0 56 42" width="512" xmlns="http://www.w3.org/2000/svg"><g id="Page-1" fill="none" fill-rule="evenodd"><g id="039---Cursor-Keyboard" fill="rgb(0,0,0)" fill-rule="nonzero"><path id="Shape" d="m19 38c0 2.209139 1.790861 4 4 4h10c2.209139 0 4-1.790861 4-4v-12c0-2.209139-1.790861-4-4-4h-10c-2.209139 0-4 1.790861-4 4zm10-14h2c.5522847 0 1 .4477153 1 1s-.4477153 1-1 1h-2c-.5522847 0-1-.4477153-1-1s.4477153-1 1-1zm-.219 9.625 2.438-3.048c.3460579-.4272994.9721792-.4950446 1.4016245-.1516534.4294454.3433913.5010869.9690788.1603755 1.4006534l-2.438 3.048c-.5693197.7115667-1.4312086 1.1257818-2.3425 1.1257818s-1.7731803-.4142151-2.3425-1.1257818l-2.439-3.049c-.3407114-.4315746-.2690699-1.0572621.1603755-1.4006534.4294453-.3433912 1.0555666-.275646 1.4016245.1516534l2.439 3.048c.1955208.2273496.4804104.358207.7802707.3583991s.5849174-.1303001.7807293-.3573991zm-4.781-9.625h1c.5522847 0 1 .4477153 1 1s-.4477153 1-1 1h-1c-.5522847 0-1 .4477153-1 1s-.4477153 1-1 1-1-.4477153-1-1c0-1.6568542 1.3431458-3 3-3z"/><path id="Shape" d="m23 20h10c2.209139 0 4-1.790861 4-4v-12c0-2.209139-1.790861-4-4-4h-10c-2.209139 0-4 1.790861-4 4v12c0 2.209139 1.790861 4 4 4zm6-18h2c.5522847 0 1 .44771525 1 1s-.4477153 1-1 1h-2c-.5522847 0-1-.44771525-1-1s.4477153-1 1-1zm1.343 5.328 2.438 3.047c.3451779.4313344.2753344 1.060822-.156 1.406-.4313344.3451779-1.060822.2753344-1.406-.156l-2.439-3.048c-.1954793-.22718327-.4802928-.35785099-.78-.35785099s-.5845207.13066772-.78.35785099l-2.439 3.048c-.223291.2790245-.5784781.4177293-.9317659.3638659-.3532877-.0538635-.6510033-.2921121-.781-.625-.1299968-.3328879-.0725251-.7098415.1507659-.9888659l2.438-3.047c.5693051-.71193782 1.4314279-1.12640693 2.343-1.12640693s1.7736949.41446911 2.343 1.12640693zm-6.343-5.328h1c.5522847 0 1 .44771525 1 1s-.4477153 1-1 1h-1c-.5522847 0-1 .44771525-1 1s-.4477153 1-1 1-1-.44771525-1-1c0-1.65685425 1.3431458-3 3-3z"/><path id="Shape" d="m56 26c0-2.209139-1.790861-4-4-4h-9c-2.209139 0-4 1.790861-4 4v12c0 2.209139 1.790861 4 4 4h9c2.209139 0 4-1.790861 4-4zm-11 0h-1c-.5522847 0-1 .4477153-1 1s-.4477153 1-1 1-1-.4477153-1-1c0-1.6568542 1.3431458-3 3-3h1c.5522847 0 1 .4477153 1 1s-.4477153 1-1 1zm5.814 9.358-3.214 2.442c-.1726129.1307418-.3834646.2010257-.6.2-.4304304 0-.8125693-.2754301-.9486833-.6837722-.136114-.4083422.004339-.8579696.3486833-1.1162278l3.209-2.439c.2479103-.1758991.3952118-.4610263.3952118-.765s-.1473015-.5891009-.3952118-.765l-3.209-2.431c-.2858125-.2143593-.4355548-.5649147-.3928204-.9196153.0427344-.3547005.2714532-.6596588.6000001-.8.3285468-.1403412.7070078-.0947441.9928203.1196153l3.21 2.438c.746167.5540698 1.186056 1.4286139 1.186056 2.358s-.439889 1.8039302-1.186056 2.358zm.186-9.358h-2c-.5522847 0-1-.4477153-1-1s.4477153-1 1-1h2c.5522847 0 1 .4477153 1 1s-.4477153 1-1 1z"/><path id="Shape" d="m4 42h9c2.209139 0 4-1.790861 4-4v-12c0-2.209139-1.790861-4-4-4h-9c-2.209139 0-4 1.790861-4 4v12c0 2.209139 1.790861 4 4 4zm6-18h2c.5522847 0 1 .4477153 1 1s-.4477153 1-1 1h-2c-.55228475 0-1-.4477153-1-1s.44771525-1 1-1zm-.2 4.4c.3331271.4397373.2472144 1.0661838-.192 1.4l-3.208 2.435c-.24791032.1758991-.39521183.4610263-.39521183.765s.14730151.5891009.39521183.765l3.2 2.435c.34434433.2582582.4847973.7078856.3486833 1.1162278-.13611405.4083421-.51825289.6837722-.9486833.6837722-.21653541.0010257-.42738707-.0692582-.6-.2l-3.21-2.438c-.74616698-.5540698-1.18605597-1.4286139-1.18605597-2.358s.43988899-1.8039302 1.18605597-2.358l3.21-2.446c.21217319-.1591299.47887043-.2274568.74142136-.1899495s.49944875.1777763.65857864.3899495zm-4.8-4.4h1c.55228475 0 1 .4477153 1 1s-.44771525 1-1 1h-1c-.55228475 0-1 .4477153-1 1s-.44771525 1-1 1-1-.4477153-1-1c0-1.6568542 1.34314575-3 3-3z"/></g></g></svg>