<svg width="150" height="136" xmlns="http://www.w3.org/2000/svg" style="vector-effect: non-scaling-stroke;" stroke="null">
 <!-- Created with Method Draw - http://github.com/duopixel/Method-Draw/ -->

   <g stroke="null" transform="matrix(1.2284953729439405,0,0,1.2284953729439405,-5315.804307362903,-3655.0808616630643) " id="svg_35">
    <title stroke="null" transform="translate(-4.070019245147705,-3.2560155391693115) translate(-5.08328104019165,-1.6944268941879272) translate(0,-4.547473508864641e-13) translate(-3.842134714126587,-12.4869384765625) translate(-9.094947017729282e-13,-4.547473508864641e-13) translate(-91.59066009521484,-78.86973571777344) translate(-71.2371826171875,-35.61859130859375) translate(-783.6090087890625,-549.5439453125) translate(5197.525390625,0) translate(0,3584.5) ">Layer 1</title>
    <!-- Created with Method Draw - http://github.com/duopixel/Method-Draw/ -->
     <g stroke="null" id="svg_15" transform="matrix(0.9961463205992015,0,0,0.9931459830770415,-5177.877678141644,-3558.560752324753) ">
      <title stroke="null" transform="translate(-4.085764408111572,-3.2784862518310547) translate(-5.1029462814331055,-1.7061207294464111) translate(0,-4.547473508864641e-13) translate(-3.8569984436035156,-12.573114395141602) translate(-9.094947017729282e-13,-4.547473508864641e-13) translate(-91.94498443603516,-79.4140396118164) translate(-71.51277160644531,-35.86440658569336) translate(-786.6404418945312,-553.3365478515625) translate(5217.63232421875,0) translate(0,3609.23779296875) ">Layer 1</title>
      <rect stroke="#676480" id="svg_17" height="36" width="52" y="6598.515442" x="9554.243776" stroke-width="10" fill="#8e8ca5" transform="rotate(37 9580.243164062502,6616.516113281249) "/>
      <ellipse stroke="#28b872" ry="40" rx="40" id="svg_16" cy="6643.796897" cx="9617.446097" stroke-width="10" fill="#22e687"/>
     </g>
   </g>
</svg>
