<?xml version="1.0" encoding="iso-8859-1"?>
<!-- Generator: Adobe Illustrator 19.0.0, SVG Export Plug-In . SVG Version: 6.00 Build 0)  -->
<svg fill='#e3b421' version="1.1" id="Capa_1" xmlns="http://www.w3.org/2000/svg" xmlns:xlink="http://www.w3.org/1999/xlink" x="0px" y="0px"
	 viewBox="0 0 512 512" style="enable-background:new 0 0 512 512;" xml:space="preserve">
<g>
	<g>
		<path d="M437.02,74.98C388.667,26.629,324.38,0,256,0S123.333,26.629,74.98,74.98C26.629,123.333,0,187.62,0,256
			s26.629,132.667,74.98,181.02C123.333,485.371,187.62,512,256,512s132.667-26.629,181.02-74.98
			C485.371,388.667,512,324.38,512,256S485.371,123.333,437.02,74.98z M256,482C131.383,482,30,380.617,30,256S131.383,30,256,30
			s226,101.383,226,226S380.617,482,256,482z"/>
	</g>
</g>
<g>
	<g>
		<path d="M256,60C147.925,60,60,147.925,60,256s87.925,196,196,196s196-87.925,196-196S364.075,60,256,60z M225.409,229.991
			l70.668,23.557C316.966,260.51,331,279.981,331,302c0,16.612-8.593,32.584-23.574,43.82
			c-10.232,7.675-22.823,12.802-36.426,14.983V392h-30v-31.198c-13.603-2.181-26.194-7.308-36.426-14.983
			C189.592,334.584,181,318.612,181,302h30c0,16.262,20.607,30,45,30s45-13.738,45-30c0-9.085-5.791-17.119-14.409-19.991
			l-70.669-23.557C195.034,251.49,181,232.019,181,210c0-16.612,8.592-32.584,23.574-43.82
			c10.233-7.675,22.824-12.802,36.426-14.983V120h30v31.198c13.603,2.181,26.194,7.308,36.426,14.983
			C322.407,177.416,331,193.388,331,210h-30c0-16.262-20.607-30-45-30s-45,13.738-45,30
			C211,219.085,216.791,227.119,225.409,229.991z"/>
	</g>
</g>
<g>
</g>
<g>
</g>
<g>
</g>
<g>
</g>
<g>
</g>
<g>
</g>
<g>
</g>
<g>
</g>
<g>
</g>
<g>
</g>
<g>
</g>
<g>
</g>
<g>
</g>
<g>
</g>
<g>
</g>
</svg>
