<svg fill='white' height="512pt" viewBox="0 0 512 512" width="512pt" xmlns="http://www.w3.org/2000/svg"><path d="m481.992188 452.042969h-25.03125v-153.070313c0-19.132812-15.566407-34.699218-34.699219-34.699218h-53.21875v187.769531h-30v-214.570313c0-20.203125-16.4375-36.640625-36.640625-36.640625h-92.808594c-20.203125 0-36.636719 16.4375-36.636719 36.640625v214.570313h-30v-143.191407h-53.21875c-19.128906 0-34.699219 15.566407-34.699219 34.699219v108.492188h-25.03125c-16.570312 0-30.007812 13.421875-30.007812 29.976562 0 16.558594 13.4375 29.980469 30.007812 29.980469h451.984376c16.570312 0 30.007812-13.421875 30.007812-29.980469 0-16.554687-13.4375-29.976562-30.007812-29.976562zm0 0"/><path d="m180.4375 83.902344 14.308594 10.382812c7.375 5.355469 10.464844 14.847656 7.648437 23.511719l-5.464843 16.804687c-6.300782 19.371094 15.894531 35.480469 32.390624 23.507813l14.308594-10.382813c7.375-5.355468 17.363282-5.355468 24.742188 0l14.308594 10.382813c16.496093 11.972656 38.691406-4.136719 32.390624-23.507813l-5.464843-16.804687c-2.816407-8.664063.269531-18.15625 7.648437-23.511719l14.308594-10.382812c16.496094-11.972656 8.015625-38.039063-12.375-38.039063h-17.683594c-9.121094 0-17.203125-5.867187-20.019531-14.53125l-5.464844-16.800781c-6.300781-19.375-33.738281-19.375-40.039062 0l-5.464844 16.800781c-2.820313 8.664063-10.902344 14.53125-20.019531 14.53125h-17.6875c-20.386719 0-28.867188 26.066407-12.371094 38.039063zm0 0"/></svg>
