<svg width="200.00000000000003" height="200.00000000000003" xmlns="http://www.w3.org/2000/svg">
 <!-- Created with Method Draw - http://github.com/duopixel/Method-Draw/ -->

 <g>
  <title>Layer 1</title>
  <!-- Created with Method Draw - http://github.com/duopixel/Method-Draw/ -->
  <g stroke="null" id="svg_17">
   <g stroke="null" transform="matrix(1.2773386989970326,0,0,1.2773386989970326,-6623.4993096458475,-4541.2469079966295) " id="svg_16">
    <title stroke="null" transform="translate(7.380098819732666,7.380098819732666) translate(-1.6151227951049805,4.547473508864641e-13) translate(-0.00018789486784953624,4.547473508864641e-13) translate(-0.00018789486784953624,4.547473508864641e-13) translate(-0.00018789486784953624,4.547473508864641e-13) translate(9.094947017729282e-13,-1.6154731512069702) translate(9.094947017729282e-13,0.0004383572086226195) translate(9.094947017729282e-13,0.0004383572086226195) translate(9.094947017729282e-13,-0.16997170448303223) translate(-0.00018789486784953624,4.547473508864641e-13) translate(-0.00018789486784953624,4.547473508864641e-13) translate(0.36260494589805603,4.547473508864641e-13) translate(-2.7843704223632812,-0.5568740963935852) translate(-113.04556274414062,-96.89619445800781) translate(-0.000603727821726352,4.547473508864641e-13) translate(0.00036962926969863474,4.547473508864641e-13) translate(-0.4005056321620941,4.547473508864641e-13) translate(-113.65977478027344,-59.24351119995117) translate(5192.8271484375,0) translate(0,3610.60009765625) ">Layer 1</title>
    <!-- Created with Method Draw - http://github.com/duopixel/Method-Draw/ -->
    <g stroke="null" id="svg_9" transform="matrix(0.9961463205992015,0,0,0.9931459830770415,-5177.877678141644,-3558.560752324753) ">
     <title stroke="null" transform="translate(7.408649444580078,7.431031227111816) translate(-1.6213710308074951,4.547473508864641e-13) translate(-0.0001886217505671084,4.547473508864641e-13) translate(-0.0001886217505671084,4.547473508864641e-13) translate(-0.0001886217505671084,4.547473508864641e-13) translate(9.094947017729282e-13,-1.6266220808029175) translate(9.094947017729282e-13,0.0004413824644871056) translate(9.094947017729282e-13,0.0004413824644871056) translate(9.094947017729282e-13,-0.1711447387933731) translate(-0.0001886217505671084,4.547473508864641e-13) translate(-0.0001886217505671084,4.547473508864641e-13) translate(0.36400771141052246,4.547473508864641e-13) translate(-2.7951419353485107,-0.5607172846794128) translate(-113.4828872680664,-97.56490325927734) translate(-0.0006060634041205049,4.547473508864641e-13) translate(0.000371059199096635,4.547473508864641e-13) translate(-0.402055025100708,4.547473508864641e-13) translate(-114.09947967529297,-59.65237045288086) translate(5212.916015625,0) translate(0,3635.51806640625) ">Layer 1</title>
     <rect stroke="#676480" id="svg_14" height="36" width="52" y="7184.093737" x="10486.533229" stroke-width="10" fill="#8e8ca5" transform="rotate(127 10512.533203125,7202.093749999999) "/>
     <rect stroke="#676480" id="svg_13" height="36" width="52" y="7253.093737" x="10495.533229" stroke-width="10" fill="#8e8ca5" transform="rotate(37 10521.533203125,7271.09375) "/>
     <rect stroke="#676480" id="svg_12" height="36" width="52" y="7194.093737" x="10416.533229" stroke-width="10" fill="#8e8ca5" transform="rotate(37 10442.533203125004,7212.093750000001) "/>
     <rect stroke="#676480" id="svg_11" height="36" width="52" y="7263.093737" x="10425.533229" stroke-width="10" fill="#8e8ca5" transform="rotate(127 10451.533203125002,7281.09375) "/>
     <ellipse stroke="#28b872" ry="40" rx="40" id="svg_10" cy="7241.839441" cx="10481.199798" stroke-width="10" fill="#22e687"/>
    </g>
   </g>
  </g>
 </g>
</svg>
