<svg fill='#949091' height="512pt" viewBox="-32 0 512 512" width="512pt" xmlns="http://www.w3.org/2000/svg"><path d="m50.007812 329.191406-48.421874 96.828125c-2.328126 4.652344-2.078126 10.179688.652343 14.601563 2.738281 4.417968 7.558594 7.109375 12.757813 7.109375h72.839844l43.703124 58.269531c2.839844 3.800781 7.296876 6 11.988282 6 6.230468 0 11.140625-3.71875 13.421875-8.289062l45.628906-91.261719c-61.691406-5.898438-116.082031-37.179688-152.570313-83.257813zm0 0"/><path d="m446.148438 426.019531-48.421876-96.828125c-36.488281 46.078125-90.878906 77.359375-152.570312 83.257813l45.632812 91.261719c2.277344 4.570312 7.1875 8.289062 13.417969 8.289062 4.691407 0 9.152344-2.199219 11.992188-6l43.699219-58.269531h72.839843c5.199219 0 10.019531-2.691407 12.757813-7.109375 2.730468-4.421875 2.980468-9.949219.652344-14.601563zm0 0"/><path d="m415.601562 191.734375c0-105.722656-86.011718-191.734375-191.734374-191.734375-105.722657 0-191.734376 86.011719-191.734376 191.734375 0 105.71875 86.011719 191.734375 191.734376 191.734375 105.722656 0 191.734374-86.011719 191.734374-191.734375zm-143.535156 65.332031c8.285156 0 15 6.714844 15 15s-6.714844 15-15 15h-96.398437c-8.285157 0-15-6.714844-15-15v-7.316406c0-20.5625 10.214843-39.652344 27.332031-51.066406 8.65625-5.765625 53.34375-35.554688 53.34375-35.554688 9.847656-6.566406 15.726562-17.566406 15.726562-29.40625-.621093-17.789062-15.230468-32.023437-33.171874-32.023437-17.941407 0-32.550782 14.234375-33.171876 32.023437 0 8.285156-6.714843 15-15 15-8.28125 0-15-6.714844-15-15 .632813-34.359375 28.660157-62.023437 63.171876-62.023437 34.511718 0 62.542968 27.664062 63.171874 62.023437 0 21.90625-10.875 42.226563-29.085937 54.367188 0 0-44.691406 29.792968-53.347656 35.558594-6.5625 4.375-11.140625 10.960937-13.019531 18.417968zm0 0"/></svg>
