<svg fill='#d27934' height="512pt" viewBox="-32 0 512 512" width="512pt" xmlns="http://www.w3.org/2000/svg"><path d="m50.007812 329.191406-48.421874 96.828125c-2.328126 4.652344-2.078126 10.179688.652343 14.601563 2.738281 4.417968 7.558594 7.109375 12.757813 7.109375h72.839844l43.703124 58.269531c2.839844 3.800781 7.296876 6 11.988282 6 6.230468 0 11.140625-3.71875 13.421875-8.289062l45.628906-91.261719c-61.691406-5.898438-116.082031-37.179688-152.570313-83.257813zm0 0"/><path d="m446.148438 426.019531-48.421876-96.828125c-36.488281 46.078125-90.878906 77.359375-152.570312 83.257813l45.632812 91.261719c2.277344 4.570312 7.1875 8.289062 13.417969 8.289062 4.691407 0 9.152344-2.199219 11.992188-6l43.699219-58.269531h72.839843c5.199219 0 10.019531-2.691407 12.757813-7.109375 2.730468-4.421875 2.980468-9.949219.652344-14.601563zm0 0"/><path d="m415.601562 191.734375c0-105.722656-86.011718-191.734375-191.734374-191.734375-105.722657 0-191.734376 86.011719-191.734376 191.734375 0 105.71875 86.011719 191.734375 191.734376 191.734375 105.722656 0 191.734374-86.011719 191.734374-191.734375zm-187.71875 103.367187c-37.066406 0-67.214843-30.148437-67.214843-67.203124 0-8.285157 6.714843-15 15-15 8.285156 0 15 6.714843 15 15 0 20.511718 16.6875 37.203124 37.199219 37.203124 20.539062 0 37.234374-16.695312 37.234374-37.21875 0-20.527343-16.6875-37.21875-37.199218-37.21875h-4.035156c-5.683594 0-10.875-3.207031-13.414063-8.289062-2.542969-5.082031-1.996094-11.164062 1.414063-15.710938l30.199218-40.265624h-58.367187c-8.28125 0-15-6.714844-15-15 0-8.285157 6.71875-15 15-15h88.367187c5.683594 0 10.878906 3.210937 13.417969 8.292968 2.539063 5.082032 1.992187 11.164063-1.417969 15.707032l-33.222656 44.300781c25.789062 9.398437 44.257812 34.167969 44.257812 63.167969 0 37.078124-30.152343 67.234374-67.21875 67.234374zm0 0"/></svg>
