<svg height="512" viewBox="0 0 56 42" width="512" xmlns="http://www.w3.org/2000/svg"><g id="Page-1" fill="none" fill-rule="evenodd"><g id="038---wasd-Keyboard" fill="rgb(0,0,0)" fill-rule="nonzero"><path id="Shape" d="m37 26c0-2.209139-1.790861-4-4-4h-10c-2.209139 0-4 1.790861-4 4v12c0 2.209139 1.790861 4 4 4h10c2.209139 0 4-1.790861 4-4zm-14 1c0 .5522847-.4477153 1-1 1s-1-.4477153-1-1c0-1.6568542 1.3431458-3 3-3h1c.5522847 0 1 .4477153 1 1s-.4477153 1-1 1h-1c-.5522847 0-1 .4477153-1 1zm5 13c-1.615085.0547741-3.1044749-.8676613-3.775-2.338-.1392006-.3330934-.0880613-.7153554.1338003-1.0001455.2218617-.2847902.5799982-.4278905.937024-.3744059s.6575071.2952497.7861757.6325514c.3721045.7050908 1.1221579 1.1274358 1.918 1.08 1.084 0 2-.687 2-1.5s-.916-1.5-2-1.5c-2.0671312.1264835-3.8509663-1.4343722-4-3.5.1490337-2.0656278 1.9328688-3.6264835 4-3.5 1.615085-.0547741 3.1044749.8676613 3.775 2.338.1392006.3330934.0880613.7153554-.1338003 1.0001455-.2218617.2847902-.5799982.4278905-.937024.3744059s-.6575071-.2952497-.7861757-.6325514c-.3721045-.7050908-1.1221579-1.1274358-1.918-1.08-1.084 0-2 .687-2 1.5s.916 1.5 2 1.5c2.0671312-.1264835 3.8509663 1.4343722 4 3.5-.1490337 2.0656278-1.9328688 3.6264835-4 3.5zm3-14h-2c-.5522847 0-1-.4477153-1-1s.4477153-1 1-1h2c.5522847 0 1 .4477153 1 1s-.4477153 1-1 1z"/><path id="Shape" d="m37 4c0-2.209139-1.790861-4-4-4h-10c-2.209139 0-4 1.790861-4 4v12c0 2.209139 1.790861 4 4 4h10c2.209139 0 4-1.790861 4-4zm-8-2h2c.5522847 0 1 .44771525 1 1s-.4477153 1-1 1h-2c-.5522847 0-1-.44771525-1-1s.4477153-1 1-1zm-8 3c0-1.65685425 1.3431458-3 3-3h1c.5522847 0 1 .44771525 1 1s-.4477153 1-1 1h-1c-.5522847 0-1 .44771525-1 1s-.4477153 1-1 1-1-.44771525-1-1zm12.97 3.883-1.745 6.981c-.1404427.5615895-.5915033.9922421-1.1589893 1.1065512s-1.1500993-.1081297-1.4970107-.5715512l-1.569-2.093-1.57 2.094c-.2802387.3781394-.7233382.6008025-1.194.6-.1007101.0002175-.2011963-.0094962-.3-.029-.5691734-.1114777-1.0220522-.5429022-1.161-1.106l-1.745-6.982c-.1297214-.53396655.1957027-1.07256598.7287292-1.20609737.5330266-.13353139 1.0739362.18803803 1.2112708.72009737l1.49 5.962 1.34-1.786c.2935665-.3614094.7343842-.5712611 1.2-.5712611s.9064335.2098517 1.2.5712611l1.34 1.786 1.49-5.959c.1373346-.53205934.6782442-.85362876 1.2112708-.72009737.5330265.13353139.8584506.67213082.7287292 1.20609737z"/><path id="Shape" d="m4 42h9c2.209139 0 4-1.790861 4-4v-12c0-2.209139-1.790861-4-4-4h-9c-2.209139 0-4 1.790861-4 4v12c0 2.209139 1.790861 4 4 4zm6-18h2c.5522847 0 1 .4477153 1 1s-.4477153 1-1 1h-2c-.55228475 0-1-.4477153-1-1s.44771525-1 1-1zm3 8.5v6.5c0 .5522847-.4477153 1-1 1s-1-.4477153-1-1v-6.5c0-1.3807119-1.11928813-2.5-2.5-2.5s-2.5 1.1192881-2.5 2.5v1.5h2c.55228475 0 1 .4477153 1 1s-.44771525 1-1 1h-2v3c0 .5522847-.44771525 1-1 1s-1-.4477153-1-1v-6.5c.00000004-2.4852813 2.01471865-4.4999999 4.5-4.4999999 2.4852813 0 4.5 2.0147186 4.5 4.4999999zm-8-8.5h1c.55228475 0 1 .4477153 1 1s-.44771525 1-1 1h-1c-.55228475 0-1 .4477153-1 1s-.44771525 1-1 1-1-.4477153-1-1c0-1.6568542 1.34314575-3 3-3z"/><path id="Shape" d="m52 22h-9c-2.209139 0-4 1.790861-4 4v12c0 2.209139 1.790861 4 4 4h9c2.209139 0 4-1.790861 4-4v-12c0-2.209139-1.790861-4-4-4zm-10 6c-.5522847 0-1-.4477153-1-1 0-1.6568542 1.3431458-3 3-3h1c.5522847 0 1 .4477153 1 1s-.4477153 1-1 1h-1c-.5522847 0-1 .4477153-1 1s-.4477153 1-1 1zm10 7c-.0033061 2.7600532-2.2399468 4.9966939-5 5h-2c-1.1045695 0-2-.8954305-2-2v-4c0-.5522847.4477153-1 1-1s1 .4477153 1 1v4h2c1.6568542 0 3-1.3431458 3-3v-2c0-1.6568542-1.3431458-3-3-3h-2c0 .5522847-.4477153 1-1 1s-1-.4477153-1-1c0-1.1045695.8954305-2 2-2h2c2.7600532.0033061 4.9966939 2.2399468 5 5zm-1-9h-2c-.5522847 0-1-.4477153-1-1s.4477153-1 1-1h2c.5522847 0 1 .4477153 1 1s-.4477153 1-1 1z"/></g></g></svg>